<?xml version="1.0" standalone="no"?>
<!DOCTYPE svg PUBLIC "-//W3C//DTD SVG 20010904//EN"
 "http://www.w3.org/TR/2001/REC-SVG-20010904/DTD/svg10.dtd">
<svg version="1.0" xmlns="http://www.w3.org/2000/svg"
 width="499.000000pt" height="499.000000pt" viewBox="0 0 499.000000 499.000000"
 preserveAspectRatio="xMidYMid meet">
<metadata>
Created by potrace 1.14, written by Peter Selinger 2001-2017
</metadata>
<g transform="translate(0.000000,499.000000) scale(0.100000,-0.100000)"
fill="#000000" stroke="none">
<path d="M2217 4984 c-3 -3 -27 -7 -53 -9 -27 -2 -50 -5 -51 -6 -2 -1 -12 -3
-23 -4 -11 -1 -21 -3 -22 -5 -2 -1 -16 -3 -33 -6 -32 -4 -68 -11 -72 -14 -2
-2 -12 -4 -23 -5 -11 -1 -22 -4 -25 -5 -3 -1 -8 -3 -12 -4 -72 -16 -120 -31
-130 -39 -7 -5 -13 -6 -13 -2 0 4 -12 0 -26 -10 -15 -9 -23 -12 -19 -5 4 7 -5
5 -24 -4 -17 -9 -32 -16 -33 -16 -4 2 -38 -11 -78 -28 -19 -8 -37 -16 -40 -16
-3 -1 -11 -5 -17 -9 -7 -5 -13 -5 -13 -1 0 4 -9 -1 -20 -11 -11 -10 -20 -15
-20 -12 0 9 -83 -34 -92 -47 -4 -6 -8 -8 -8 -4 0 4 -24 -6 -52 -22 -29 -17
-64 -36 -78 -42 -14 -7 -29 -16 -35 -20 -5 -5 -39 -27 -75 -50 -36 -23 -67
-45 -70 -48 -3 -3 -23 -17 -45 -32 -22 -15 -52 -38 -67 -50 -14 -13 -45 -39
-69 -58 -53 -43 -208 -198 -267 -265 -71 -82 -228 -296 -245 -335 -3 -8 -20
-37 -36 -65 -172 -289 -288 -669 -318 -1040 -11 -139 -5 -413 11 -500 2 -11 7
-42 10 -70 8 -57 14 -91 20 -120 59 -269 142 -490 269 -720 51 -91 154 -250
179 -276 7 -8 31 -38 52 -67 21 -28 42 -52 47 -52 5 0 9 -5 9 -11 0 -13 235
-247 300 -299 24 -19 49 -41 56 -48 7 -6 17 -12 22 -12 6 0 12 -4 14 -9 4 -12
177 -127 258 -173 108 -61 276 -142 283 -136 2 2 10 -2 18 -8 15 -12 78 -34
93 -33 5 0 12 -3 15 -8 5 -8 48 -23 106 -36 6 -2 16 -6 23 -10 6 -5 12 -5 12
-1 0 3 7 1 15 -6 8 -6 19 -9 24 -6 5 4 12 2 16 -3 3 -5 13 -10 23 -9 9 0 28
-3 42 -7 14 -4 41 -9 60 -11 19 -3 37 -8 40 -12 3 -4 16 -8 30 -9 47 -4 105
-11 105 -13 0 -7 152 -13 335 -14 199 0 308 6 370 20 14 3 32 6 40 6 8 0 31 4
50 9 19 4 53 11 75 15 22 3 48 10 58 15 9 5 17 8 17 5 0 -3 21 2 48 10 26 9
56 17 67 19 11 2 20 4 20 5 0 1 7 3 15 5 28 7 120 42 127 48 3 4 12 7 19 7 13
0 100 38 204 88 77 37 254 143 258 153 2 5 9 9 16 9 6 0 27 13 46 30 19 16 40
29 47 30 6 0 13 3 15 8 2 4 37 34 78 66 140 112 333 314 439 461 27 39 54 75
58 80 23 27 135 221 176 305 115 236 182 458 227 745 23 149 25 517 4 670 -49
355 -168 693 -342 973 -29 46 -52 85 -52 88 0 2 -7 12 -15 21 -8 10 -38 50
-67 89 -80 107 -133 169 -239 274 -84 83 -117 113 -199 180 -10 8 -28 23 -40
33 -66 56 -256 175 -367 232 -34 18 -69 38 -78 45 -8 7 -15 10 -15 6 0 -3 -22
5 -50 19 -27 14 -50 22 -50 18 0 -5 -4 -2 -8 4 -4 7 -17 14 -27 16 -11 2 -36
11 -55 20 -19 8 -38 13 -42 11 -5 -3 -8 -1 -8 5 0 6 -7 8 -15 5 -8 -4 -15 -1
-15 5 0 6 -9 11 -20 11 -11 0 -42 9 -70 19 -29 11 -47 14 -43 8 4 -7 1 -7 -9
1 -15 12 -35 18 -83 26 -11 2 -40 8 -65 14 -25 6 -65 13 -90 16 -25 3 -56 9
-70 12 -29 8 -616 15 -623 8z"/>
</g>
</svg>
